<?xml version="1.0" encoding="utf-8"?>
<!-- Generator: Adobe Illustrator 27.6.1, SVG Export Plug-In . SVG Version: 6.00 Build 0)  -->
<svg version="1.1" id="Layer_1" xmlns="http://www.w3.org/2000/svg" xmlns:xlink="http://www.w3.org/1999/xlink" x="0px" y="0px"
	 viewBox="0 0 517.7 283.8" style="enable-background:new 0 0 517.7 283.8;" xml:space="preserve">
<style type="text/css">
	.st0{fill:#EF3857;}
	.st1{fill:#FFFFFF;}
</style>
<rect class="st0" width="517.7" height="283.8"/>
<g>
	<g>
		<path class="st1" d="M192.9,221.8c-0.8,0.4-2.5,0.8-4.7,0.8c-6.1,0-9.7-4.1-9.7-10.4c0-7.2,4.6-11,10.2-11c2.2,0,3.7,0.4,4.3,0.8
			l-0.8,3c-0.8-0.4-2-0.7-3.4-0.7c-3.7,0-6.5,2.5-6.5,7.7c0,4.9,2.5,7.5,6.5,7.5c1.3,0,2.7-0.3,3.5-0.6L192.9,221.8z"/>
		<path class="st1" d="M208.3,214.7c0,5.7-3.7,8-7,8c-3.9,0-6.9-2.9-6.9-7.7c0-5.1,3.1-7.9,7.1-7.9C205.5,207,208.3,210,208.3,214.7
			z M198.1,214.8c0,2.8,1.1,5.1,3.3,5.1c2,0,3.2-2.4,3.2-5.2c0-2.3-0.8-5.1-3.2-5.1C198.9,209.7,198.1,212.4,198.1,214.8z"/>
		<path class="st1" d="M211.2,211.7c0-1.7-0.1-3.1-0.1-4.4h3.2l0.2,2.1h0.1c0.7-1.2,2.2-2.4,4.4-2.4c2.6,0,4.9,1.8,4.9,6.1v9.2h-3.7
			v-8.8c0-2-0.7-3.6-2.5-3.6c-1.3,0-2.3,0.9-2.6,2.1c-0.1,0.3-0.2,0.8-0.2,1.3v9h-3.7V211.7z"/>
		<path class="st1" d="M227.6,211.7c0-1.7-0.1-3.1-0.1-4.4h3.2l0.2,2.1h0.1c0.7-1.2,2.2-2.4,4.4-2.4c2.6,0,4.9,1.8,4.9,6.1v9.2h-3.7
			v-8.8c0-2-0.7-3.6-2.5-3.6c-1.3,0-2.3,0.9-2.6,2.1c-0.1,0.3-0.2,0.8-0.2,1.3v9h-3.7V211.7z"/>
		<path class="st1" d="M246.6,215.8c0.1,2.9,2,4,4.3,4c1.6,0,2.7-0.3,3.7-0.6l0.5,2.5c-1.2,0.5-2.9,0.9-4.8,0.9
			c-4.6,0-7.2-3-7.2-7.6c0-4.4,2.5-8.1,6.8-8.1c4.4,0,6,3.7,6,7.2c0,0.8-0.1,1.3-0.1,1.6H246.6z M252.5,213.3c0-1.7-0.6-3.7-2.8-3.7
			c-2.1,0-2.9,2.1-3.1,3.7H252.5z"/>
		<path class="st1" d="M268.9,221.9c-0.7,0.3-2.1,0.7-3.7,0.7c-4.4,0-7.2-2.9-7.2-7.7c0-4.5,2.9-8,7.8-8c1.3,0,2.5,0.3,3.2,0.6
			l-0.6,2.8c-0.5-0.2-1.3-0.5-2.5-0.5c-2.7,0-4.2,2.2-4.2,4.9c0,3.1,1.8,4.9,4.2,4.9c1.1,0,1.9-0.2,2.6-0.5L268.9,221.9z"/>
		<path class="st1" d="M276.1,203.1v4.2h3.4v2.7h-3.4v7c0,1.8,0.6,2.6,1.8,2.6c0.6,0,1-0.1,1.3-0.1l0.1,2.8
			c-0.5,0.2-1.5,0.3-2.6,0.3c-1.3,0-2.4-0.4-3.1-1.1c-0.8-0.8-1.2-2.1-1.2-4.2V210h-2v-2.7h2V204L276.1,203.1z"/>
		<path class="st1" d="M292.3,203.1v4.2h3.4v2.7h-3.4v7c0,1.8,0.6,2.6,1.8,2.6c0.6,0,1-0.1,1.3-0.1l0.1,2.8
			c-0.5,0.2-1.5,0.3-2.6,0.3c-1.3,0-2.4-0.4-3.1-1.1c-0.8-0.8-1.2-2.1-1.2-4.2V210h-2v-2.7h2V204L292.3,203.1z"/>
		<path class="st1" d="M311.1,214.7c0,5.7-3.7,8-7,8c-3.9,0-6.9-2.9-6.9-7.7c0-5.1,3.1-7.9,7.1-7.9C308.4,207,311.1,210,311.1,214.7
			z M300.9,214.8c0,2.8,1.1,5.1,3.3,5.1c2,0,3.2-2.4,3.2-5.2c0-2.3-0.8-5.1-3.2-5.1C301.8,209.7,300.9,212.4,300.9,214.8z"/>
		<path class="st1" d="M319.8,219c0.8,0.5,2.2,1,3.5,1c1.5,0,2.3-0.7,2.3-1.7c0-1-0.6-1.5-2.3-2.3c-2.7-1.1-3.8-2.7-3.8-4.4
			c0-2.6,2.1-4.6,5.4-4.6c1.5,0,2.8,0.4,3.7,0.8l-0.7,2.6c-0.6-0.4-1.7-0.8-2.8-0.8c-1.3,0-2,0.7-2,1.6c0,0.9,0.6,1.4,2.4,2.1
			c2.5,1,3.7,2.5,3.7,4.6c0,2.8-2.1,4.7-5.8,4.7c-1.6,0-3.2-0.4-4.2-1L319.8,219z"/>
		<path class="st1" d="M344.4,217.9c0,1.7,0.1,3.2,0.1,4.5h-3.2l-0.2-2.1h-0.1c-0.6,1-2,2.4-4.4,2.4c-2.7,0-4.8-1.8-4.8-6.4v-9h3.7
			v8.4c0,2.4,0.7,4,2.5,4c1.4,0,2.2-1,2.5-1.9c0.1-0.3,0.2-0.8,0.2-1.2v-9.3h3.7V217.9z"/>
		<path class="st1" d="M358.3,221.9c-0.7,0.3-2.1,0.7-3.7,0.7c-4.4,0-7.2-2.9-7.2-7.7c0-4.5,2.9-8,7.8-8c1.3,0,2.5,0.3,3.2,0.6
			l-0.6,2.8c-0.5-0.2-1.3-0.5-2.5-0.5c-2.7,0-4.2,2.2-4.2,4.9c0,3.1,1.8,4.9,4.2,4.9c1.1,0,1.9-0.2,2.6-0.5L358.3,221.9z"/>
		<path class="st1" d="M370.7,221.9c-0.7,0.3-2.1,0.7-3.7,0.7c-4.4,0-7.2-2.9-7.2-7.7c0-4.5,2.9-8,7.8-8c1.3,0,2.5,0.3,3.2,0.6
			l-0.6,2.8c-0.5-0.2-1.3-0.5-2.5-0.5c-2.7,0-4.2,2.2-4.2,4.9c0,3.1,1.8,4.9,4.2,4.9c1.1,0,1.9-0.2,2.6-0.5L370.7,221.9z"/>
		<path class="st1" d="M375.7,215.8c0.1,2.9,2,4,4.3,4c1.6,0,2.7-0.3,3.7-0.6l0.5,2.5c-1.2,0.5-2.9,0.9-4.8,0.9
			c-4.6,0-7.2-3-7.2-7.6c0-4.4,2.5-8.1,6.8-8.1c4.4,0,6,3.7,6,7.2c0,0.8-0.1,1.3-0.1,1.6H375.7z M381.5,213.3c0-1.7-0.6-3.7-2.8-3.7
			c-2.1,0-2.9,2.1-3.1,3.7H381.5z"/>
		<path class="st1" d="M387.6,219c0.8,0.5,2.2,1,3.5,1c1.5,0,2.3-0.7,2.3-1.7c0-1-0.6-1.5-2.3-2.3c-2.7-1.1-3.8-2.7-3.8-4.4
			c0-2.6,2.1-4.6,5.4-4.6c1.5,0,2.8,0.4,3.7,0.8l-0.7,2.6c-0.6-0.4-1.7-0.8-2.8-0.8c-1.3,0-2,0.7-2,1.6c0,0.9,0.6,1.4,2.4,2.1
			c2.5,1,3.7,2.5,3.7,4.6c0,2.8-2.1,4.7-5.8,4.7c-1.6,0-3.2-0.4-4.2-1L387.6,219z"/>
		<path class="st1" d="M399.5,219c0.8,0.5,2.2,1,3.5,1c1.5,0,2.3-0.7,2.3-1.7c0-1-0.6-1.5-2.3-2.3c-2.7-1.1-3.8-2.7-3.8-4.4
			c0-2.6,2.1-4.6,5.4-4.6c1.5,0,2.8,0.4,3.7,0.8l-0.7,2.6c-0.6-0.4-1.7-0.8-2.8-0.8c-1.3,0-2,0.7-2,1.6c0,0.9,0.6,1.4,2.4,2.1
			c2.5,1,3.7,2.5,3.7,4.6c0,2.8-2.1,4.7-5.8,4.7c-1.6,0-3.2-0.4-4.2-1L399.5,219z"/>
	</g>
	<path class="st1" d="M61.7,102.9H136V88.3c0,0,1.6-11.1-8.2-11.1s-49.2,0-49.2,0L61.7,102.9z"/>
	<path class="st1" d="M97.2,108.7h31.7L113,127.5l20.5,24.6c0,0,4,3.1,4,9.3c0,6.2,0,9.5,0,9.5s-0.1,9.7-9.1,9.7c-9,0-54.1,0-54.1,0
		l-15.5-24.4h48.4l-25-29.7L97.2,108.7z"/>
	<path class="st1" d="M148.4,61.1v57.6h46.5v61.9h20.8V102c0-4.6-3.8-8.4-8.4-8.4h-38.4V61.1H148.4z"/>
	<rect x="148.4" y="124.5" class="st1" width="21" height="97"/>
	<rect x="226.9" y="116.5" class="st1" width="13" height="64.1"/>
	<path class="st1" d="M249.1,180.6h13.3v-40.3l20.4,35.2c5.7,9.9,20.8,5.8,20.8-5.6v-53.4H290v41.9l-21.6-37.1
		c-5.3-9.1-19.3-5.4-19.3,5.2V180.6z"/>
	<path class="st1" d="M310.1,131.4h47.7l-10.3-15.3h-31.2c-3.4,0-6.1,2.7-6.1,6.1V131.4z"/>
	<path class="st1" d="M310.1,135.4v39.3c0,3.5,2.8,6.3,6.3,6.3h30.9l10.5-15.9h-33.7v-29.8H310.1z"/>
	<polygon class="st1" points="360.9,109.1 378.6,81.8 412.6,81.8 430.9,109.1 411.8,137.8 376.4,137.8 	"/>
	<polygon class="st1" points="367.5,162.9 380.4,143 405.2,143 418.5,162.9 404.6,183.8 378.8,183.8 	"/>
	<polygon class="st1" points="416.4,145.6 427.1,129 447.7,129 458.8,145.6 447.3,162.9 425.8,162.9 	"/>
</g>
</svg>
